<svg width="80" height="54" viewBox="0 0 80 54" fill="none" xmlns="http://www.w3.org/2000/svg">
<g clip-path="url(#clip0_84_13360)">
<path d="M74.6459 20.0902C70.2441 12.4264 63.4478 6.43627 55.3115 3.04932C47.1751 -0.337635 38.1535 -0.932094 29.6465 1.35817C21.1395 3.64844 13.6227 8.69539 8.26226 15.716C2.90187 22.7365 -0.00239297 31.3382 9.31475e-05 40.1864H14.27C14.27 33.329 16.9814 26.7524 21.8079 21.9034C26.6344 17.0545 33.1804 14.3303 40.0061 14.3303C46.8317 14.3303 53.3778 17.0545 58.2043 21.9034C63.0307 26.7524 65.7422 33.329 65.7422 40.1864H80.0001C80.011 33.1305 78.1638 26.1972 74.6459 20.0902Z" fill="white"/>
<path d="M52.8669 17.7964L60.003 5.37916C53.9243 1.8449 47.0232 -0.0109315 40 2.25829e-06V14.3364C44.5176 14.3297 48.9566 15.5234 52.8669 17.7964Z" fill="#F7B11E"/>
<path d="M27.1331 17.7964L19.997 5.37917C13.9209 8.91382 8.87245 13.9858 5.3542 20.0902L17.7138 27.2596C19.9778 23.3334 23.2252 20.0709 27.1331 17.7964Z" fill="#FDEB48"/>
<path d="M40 14.3364V2.25829e-06C32.9768 -0.0109315 26.0757 1.8449 19.997 5.37916L27.1331 17.7964C31.0435 15.5236 35.4824 14.3299 40 14.3364Z" fill="#FED137"/>
<path d="M62.2862 27.2596L74.6458 20.0902C71.1276 13.9858 66.0791 8.91382 60.003 5.37917L52.8669 17.7964C56.7751 20.0706 60.0226 23.3332 62.2862 27.2596Z" fill="#F26D24"/>
<path d="M65.7361 40.1865H80C80.0109 33.1305 78.1637 26.1972 74.6458 20.0902L62.2862 27.2596C64.5511 31.1874 65.7413 35.6472 65.7361 40.1865Z" fill="#D72626"/>
<path d="M14.2699 40.1865C14.2652 35.6473 15.4555 31.1876 17.7198 27.2596L5.3542 20.0902C1.83634 26.1972 -0.010881 33.1305 2.03541e-06 40.1865H14.2699Z" fill="#99C817"/>
<g style="mix-blend-mode:color-burn">
<path d="M64.9279 25.832C61.7632 20.3279 56.8818 16.0245 51.0385 13.5873C45.1951 11.1502 38.7153 10.7149 32.601 12.3489C26.4867 13.9829 21.0785 17.5951 17.2127 22.627C13.3469 27.6589 11.2388 33.8301 11.2144 40.1865H14.2699C14.2699 33.329 16.9813 26.7524 21.8078 21.9034C26.6343 17.0545 33.1804 14.3304 40.006 14.3304C46.8316 14.3304 53.3777 17.0545 58.2042 21.9034C63.0306 26.7524 65.7421 33.329 65.7421 40.1865H68.7916C68.7769 35.1443 67.4446 30.1944 64.9279 25.832Z" fill="#919191"/>
</g>
<path d="M37.8331 39.5504L42.1777 40.719L48.3845 8.71629L37.8331 39.5504Z" fill="#303030"/>
<path d="M40 45.1018C42.7041 45.1018 44.8961 42.8995 44.8961 40.1829C44.8961 37.4662 42.7041 35.2639 40 35.2639C37.2959 35.2639 35.1039 37.4662 35.1039 40.1829C35.1039 42.8995 37.2959 45.1018 40 45.1018Z" fill="#303030"/>
<path d="M40 43.679C41.9219 43.679 43.4799 42.1137 43.4799 40.1829C43.4799 38.252 41.9219 36.6867 40 36.6867C38.0781 36.6867 36.5201 38.252 36.5201 40.1829C36.5201 42.1137 38.0781 43.679 40 43.679Z" fill="white"/>
<path d="M40 42.6357C41.3484 42.6357 42.4415 41.5375 42.4415 40.1829C42.4415 38.8282 41.3484 37.73 40 37.73C38.6516 37.73 37.5585 38.8282 37.5585 40.1829C37.5585 41.5375 38.6516 42.6357 40 42.6357Z" fill="#303030"/>
<g style="mix-blend-mode:soft-light">
<path d="M5.3542 21.7022C8.86551 15.5923 13.9158 10.5187 19.9974 6.99119C26.079 3.4637 32.9776 1.60662 40 1.60662C47.0224 1.60662 53.921 3.4637 60.0026 6.99119C66.0842 10.5187 71.1345 15.5923 74.6458 21.7022C77.8909 27.3364 79.717 33.6817 79.9652 40.1865H80C80 29.5284 75.7857 19.3068 68.2843 11.7703C60.7828 4.23392 50.6087 0 40 0C29.3913 0 19.2172 4.23392 11.7157 11.7703C4.21427 19.3068 0 29.5284 0 40.1865H0.0347753C0.283022 33.6817 2.10909 27.3364 5.3542 21.7022Z" fill="white"/>
</g>
<g clip-path="url(#clip1_84_13360)">
<g style="mix-blend-mode:multiply">
<path d="M80 48H0V54H80V48Z" fill="white"/>
<path d="M40 53.182C60.4791 53.182 77.0806 52.2054 77.0806 51.0006C77.0806 49.7959 60.4791 48.8192 40 48.8192C19.5209 48.8192 2.91939 49.7959 2.91939 51.0006C2.91939 52.2054 19.5209 53.182 40 53.182Z" fill="white"/>
<path d="M40 53.1464C60.1488 53.1464 76.4826 52.1857 76.4826 51.0006C76.4826 49.8155 60.1488 48.8549 40 48.8549C19.8512 48.8549 3.51736 49.8155 3.51736 51.0006C3.51736 52.1857 19.8512 53.1464 40 53.1464Z" fill="#FEFEFF"/>
<path d="M40 53.112C59.8186 53.112 75.8847 52.1667 75.8847 51.0006C75.8847 49.8345 59.8186 48.8893 40 48.8893C20.1814 48.8893 4.11534 49.8345 4.11534 51.0006C4.11534 52.1667 20.1814 53.112 40 53.112Z" fill="#FDFEFE"/>
<path d="M40 53.0764C59.4883 53.0764 75.2867 52.147 75.2867 51.0006C75.2867 49.8542 59.4883 48.9249 40 48.9249C20.5117 48.9249 4.71332 49.8542 4.71332 51.0006C4.71332 52.147 20.5117 53.0764 40 53.0764Z" fill="#FCFDFE"/>
<path d="M40 53.0407C59.158 53.0407 74.6887 52.1273 74.6887 51.0006C74.6887 49.8739 59.158 48.9605 40 48.9605C20.842 48.9605 5.31129 49.8739 5.31129 51.0006C5.31129 52.1273 20.842 53.0407 40 53.0407Z" fill="#FBFCFD"/>
<path d="M40 53.0064C58.8278 53.0064 74.0907 52.1084 74.0907 51.0006C74.0907 49.8929 58.8278 48.9949 40 48.9949C21.1722 48.9949 5.90927 49.8929 5.90927 51.0006C5.90927 52.1084 21.1722 53.0064 40 53.0064Z" fill="#FAFCFD"/>
<path d="M40 52.9707C58.4975 52.9707 73.4928 52.0887 73.4928 51.0006C73.4928 49.9126 58.4975 49.0305 40 49.0305C21.5025 49.0305 6.50725 49.9126 6.50725 51.0006C6.50725 52.0887 21.5025 52.9707 40 52.9707Z" fill="#F9FBFC"/>
<path d="M40 52.9351C58.1673 52.9351 72.8948 52.069 72.8948 51.0006C72.8948 49.9322 58.1673 49.0661 40 49.0661C21.8327 49.0661 7.10522 49.9322 7.10522 51.0006C7.10522 52.069 21.8327 52.9351 40 52.9351Z" fill="#F8FAFC"/>
<path d="M40 52.9007C57.837 52.9007 72.2968 52.05 72.2968 51.0006C72.2968 49.9512 57.837 49.1005 40 49.1005C22.163 49.1005 7.7032 49.9512 7.7032 51.0006C7.7032 52.05 22.163 52.9007 40 52.9007Z" fill="#F7FAFB"/>
<path d="M40 52.8651C57.5068 52.8651 71.6988 52.0303 71.6988 51.0006C71.6988 49.9709 57.5068 49.1361 40 49.1361C22.4932 49.1361 8.30118 49.9709 8.30118 51.0006C8.30118 52.0303 22.4932 52.8651 40 52.8651Z" fill="#F6F9FB"/>
<path d="M40 52.8295C57.1758 52.8295 71.0996 52.0107 71.0996 51.0006C71.0996 49.9906 57.1758 49.1718 40 49.1718C22.8241 49.1718 8.90037 49.9906 8.90037 51.0006C8.90037 52.0107 22.8241 52.8295 40 52.8295Z" fill="#F5F8FA"/>
<path d="M40 52.7951C56.8456 52.7951 70.5017 51.9917 70.5017 51.0006C70.5017 50.0096 56.8456 49.2061 40 49.2061C23.1544 49.2061 9.49834 50.0096 9.49834 51.0006C9.49834 51.9917 23.1544 52.7951 40 52.7951Z" fill="#F4F8FA"/>
<path d="M40 52.7595C56.5153 52.7595 69.9037 51.972 69.9037 51.0006C69.9037 50.0292 56.5153 49.2418 40 49.2418C23.4847 49.2418 10.0963 50.0292 10.0963 51.0006C10.0963 51.972 23.4847 52.7595 40 52.7595Z" fill="#F3F7F9"/>
<path d="M40 52.7238C56.1851 52.7238 69.3057 51.9523 69.3057 51.0006C69.3057 50.0489 56.1851 49.2774 40 49.2774C23.8149 49.2774 10.6943 50.0489 10.6943 51.0006C10.6943 51.9523 23.8149 52.7238 40 52.7238Z" fill="#F2F6F9"/>
<path d="M40 52.6895C55.8548 52.6895 68.7077 51.9333 68.7077 51.0006C68.7077 50.0679 55.8548 49.3118 40 49.3118C24.1452 49.3118 11.2923 50.0679 11.2923 51.0006C11.2923 51.9333 24.1452 52.6895 40 52.6895Z" fill="#F1F6F9"/>
<path d="M40 52.6538C55.5246 52.6538 68.1098 51.9137 68.1098 51.0006C68.1098 50.0876 55.5246 49.3474 40 49.3474C24.4754 49.3474 11.8903 50.0876 11.8903 51.0006C11.8903 51.9137 24.4754 52.6538 40 52.6538Z" fill="#F0F5F8"/>
<path d="M40 52.6194C55.1943 52.6194 67.5118 51.8947 67.5118 51.0006C67.5118 50.1066 55.1943 49.3818 40 49.3818C24.8057 49.3818 12.4882 50.1066 12.4882 51.0006C12.4882 51.8947 24.8057 52.6194 40 52.6194Z" fill="#EFF4F8"/>
<path d="M40 52.5838C54.8641 52.5838 66.9138 51.875 66.9138 51.0006C66.9138 50.1262 54.8641 49.4174 40 49.4174C25.1359 49.4174 13.0862 50.1262 13.0862 51.0006C13.0862 51.875 25.1359 52.5838 40 52.5838Z" fill="#EEF4F7"/>
<path d="M40 52.5482C54.5338 52.5482 66.3158 51.8553 66.3158 51.0006C66.3158 50.1459 54.5338 49.453 40 49.453C25.4662 49.453 13.6842 50.1459 13.6842 51.0006C13.6842 51.8553 25.4662 52.5482 40 52.5482Z" fill="#EDF3F7"/>
<path d="M40 52.5138C54.2036 52.5138 65.7179 51.8363 65.7179 51.0006C65.7179 50.1649 54.2036 49.4874 40 49.4874C25.7964 49.4874 14.2822 50.1649 14.2822 51.0006C14.2822 51.8363 25.7964 52.5138 40 52.5138Z" fill="#ECF2F6"/>
<path d="M40 52.4782C53.8733 52.4782 65.1199 51.8167 65.1199 51.0006C65.1199 50.1846 53.8733 49.523 40 49.523C26.1267 49.523 14.8801 50.1846 14.8801 51.0006C14.8801 51.8167 26.1267 52.4782 40 52.4782Z" fill="#EBF2F6"/>
<path d="M40 52.4426C53.5431 52.4426 64.5219 51.797 64.5219 51.0006C64.5219 50.2042 53.5431 49.5587 40 49.5587C26.4569 49.5587 15.4781 50.2042 15.4781 51.0006C15.4781 51.797 26.4569 52.4426 40 52.4426Z" fill="#EAF1F5"/>
<path d="M40 52.4082C53.2121 52.4082 63.9227 51.778 63.9227 51.0006C63.9227 50.2232 53.2121 49.593 40 49.593C26.7879 49.593 16.0773 50.2232 16.0773 51.0006C16.0773 51.778 26.7879 52.4082 40 52.4082Z" fill="#E9F0F5"/>
<path d="M40 52.3726C52.8819 52.3726 63.3247 51.7583 63.3247 51.0006C63.3247 50.2429 52.8819 49.6287 40 49.6287C27.1181 49.6287 16.6753 50.2429 16.6753 51.0006C16.6753 51.7583 27.1181 52.3726 40 52.3726Z" fill="#E8F0F4"/>
<path d="M40 52.3369C52.5516 52.3369 62.7267 51.7386 62.7267 51.0006C62.7267 50.2626 52.5516 49.6643 40 49.6643C27.4484 49.6643 17.2733 50.2626 17.2733 51.0006C17.2733 51.7386 27.4484 52.3369 40 52.3369Z" fill="#E7EFF4"/>
<path d="M40 52.3026C52.2214 52.3026 62.1288 51.7197 62.1288 51.0006C62.1288 50.2816 52.2214 49.6987 40 49.6987C27.7786 49.6987 17.8712 50.2816 17.8712 51.0006C17.8712 51.7197 27.7786 52.3026 40 52.3026Z" fill="#E6EEF4"/>
<path d="M40 52.2669C51.8911 52.2669 61.5308 51.7 61.5308 51.0006C61.5308 50.3012 51.8911 49.7343 40 49.7343C28.1089 49.7343 18.4692 50.3012 18.4692 51.0006C18.4692 51.7 28.1089 52.2669 40 52.2669Z" fill="#E5EEF3"/>
<path d="M40 52.2313C51.5609 52.2313 60.9328 51.6803 60.9328 51.0006C60.9328 50.3209 51.5609 49.7699 40 49.7699C28.4391 49.7699 19.0672 50.3209 19.0672 51.0006C19.0672 51.6803 28.4391 52.2313 40 52.2313Z" fill="#E4EDF3"/>
<path d="M40 52.1969C51.2306 52.1969 60.3349 51.6613 60.3349 51.0006C60.3349 50.3399 51.2306 49.8043 40 49.8043C28.7694 49.8043 19.6652 50.3399 19.6652 51.0006C19.6652 51.6613 28.7694 52.1969 40 52.1969Z" fill="#E3ECF2"/>
<path d="M40 52.1613C50.9004 52.1613 59.7369 51.6417 59.7369 51.0006C59.7369 50.3596 50.9004 49.8399 40 49.8399C29.0996 49.8399 20.2631 50.3596 20.2631 51.0006C20.2631 51.6417 29.0996 52.1613 40 52.1613Z" fill="#E2ECF2"/>
<path d="M40 52.1269C50.5701 52.1269 59.1389 51.6227 59.1389 51.0006C59.1389 50.3786 50.5701 49.8743 40 49.8743C29.4299 49.8743 20.8611 50.3786 20.8611 51.0006C20.8611 51.6227 29.4299 52.1269 40 52.1269Z" fill="#E1EBF1"/>
<path d="M40 52.0913C50.2399 52.0913 58.5409 51.603 58.5409 51.0006C58.5409 50.3982 50.2399 49.9099 40 49.9099C29.7601 49.9099 21.4591 50.3982 21.4591 51.0006C21.4591 51.603 29.7601 52.0913 40 52.0913Z" fill="#DFEAF1"/>
<path d="M40 52.0557C49.9096 52.0557 57.9429 51.5833 57.9429 51.0006C57.9429 50.4179 49.9096 49.9455 40 49.9455C30.0904 49.9455 22.0571 50.4179 22.0571 51.0006C22.0571 51.5833 30.0904 52.0557 40 52.0557Z" fill="#DEE9F0"/>
<path d="M40 52.0213C49.5787 52.0213 57.3438 51.5643 57.3438 51.0006C57.3438 50.4369 49.5787 49.9799 40 49.9799C30.4213 49.9799 22.6563 50.4369 22.6563 51.0006C22.6563 51.5643 30.4213 52.0213 40 52.0213Z" fill="#DDE9F0"/>
<path d="M40 51.9857C49.2484 51.9857 56.7458 51.5447 56.7458 51.0006C56.7458 50.4566 49.2484 50.0156 40 50.0156C30.7516 50.0156 23.2542 50.4566 23.2542 51.0006C23.2542 51.5447 30.7516 51.9857 40 51.9857Z" fill="#DCE8EF"/>
<path d="M40 51.9501C48.9182 51.9501 56.1478 51.525 56.1478 51.0006C56.1478 50.4763 48.9182 50.0512 40 50.0512C31.0818 50.0512 23.8522 50.4763 23.8522 51.0006C23.8522 51.525 31.0818 51.9501 40 51.9501Z" fill="#DBE7EF"/>
<path d="M40 51.9157C48.5879 51.9157 55.5498 51.506 55.5498 51.0006C55.5498 50.4953 48.5879 50.0856 40 50.0856C31.4121 50.0856 24.4502 50.4953 24.4502 51.0006C24.4502 51.506 31.4121 51.9157 40 51.9157Z" fill="#DAE7EE"/>
<path d="M40 51.88C48.2577 51.88 54.9518 51.4863 54.9518 51.0006C54.9518 50.5149 48.2577 50.1212 40 50.1212C31.7423 50.1212 25.0482 50.5149 25.0482 51.0006C25.0482 51.4863 31.7423 51.88 40 51.88Z" fill="#D9E6EE"/>
<path d="M40 51.8444C47.9274 51.8444 54.3539 51.4666 54.3539 51.0006C54.3539 50.5346 47.9274 50.1568 40 50.1568C32.0726 50.1568 25.6461 50.5346 25.6461 51.0006C25.6461 51.4666 32.0726 51.8444 40 51.8444Z" fill="#D8E5EE"/>
<path d="M40 51.81C47.5972 51.81 53.7559 51.4476 53.7559 51.0006C53.7559 50.5536 47.5972 50.1912 40 50.1912C32.4028 50.1912 26.2441 50.5536 26.2441 51.0006C26.2441 51.4476 32.4028 51.81 40 51.81Z" fill="#D7E5ED"/>
<path d="M40 51.7744C47.2669 51.7744 53.1579 51.428 53.1579 51.0006C53.1579 50.5733 47.2669 50.2268 40 50.2268C32.7331 50.2268 26.8421 50.5733 26.8421 51.0006C26.8421 51.428 32.7331 51.7744 40 51.7744Z" fill="#D6E4ED"/>
<path d="M40 51.7388C46.9367 51.7388 52.5599 51.4083 52.5599 51.0006C52.5599 50.5929 46.9367 50.2624 40 50.2624C33.0633 50.2624 27.4401 50.5929 27.4401 51.0006C27.4401 51.4083 33.0633 51.7388 40 51.7388Z" fill="#D5E3EC"/>
<path d="M40 51.7044C46.6064 51.7044 51.962 51.3893 51.962 51.0006C51.962 50.6119 46.6064 50.2968 40 50.2968C33.3936 50.2968 28.038 50.6119 28.038 51.0006C28.038 51.3893 33.3936 51.7044 40 51.7044Z" fill="#D4E3EC"/>
<path d="M40 51.6688C46.2761 51.6688 51.364 51.3696 51.364 51.0006C51.364 50.6316 46.2761 50.3324 40 50.3324C33.7238 50.3324 28.636 50.6316 28.636 51.0006C28.636 51.3696 33.7238 51.6688 40 51.6688Z" fill="#D3E2EB"/>
<path d="M40 51.6344C45.9459 51.6344 50.766 51.3506 50.766 51.0006C50.766 50.6506 45.9459 50.3668 40 50.3668C34.0541 50.3668 29.234 50.6506 29.234 51.0006C29.234 51.3506 34.0541 51.6344 40 51.6344Z" fill="#D2E1EB"/>
<path d="M40 51.5988C45.615 51.5988 50.1668 51.331 50.1668 51.0006C50.1668 50.6703 45.615 50.4025 40 50.4025C34.385 50.4025 29.8332 50.6703 29.8332 51.0006C29.8332 51.331 34.385 51.5988 40 51.5988Z" fill="#D1E1EA"/>
<path d="M40 51.5632C45.2847 51.5632 49.5688 51.3113 49.5688 51.0006C49.5688 50.6899 45.2847 50.4381 40 50.4381C34.7153 50.4381 30.4312 50.6899 30.4312 51.0006C30.4312 51.3113 34.7153 51.5632 40 51.5632Z" fill="#D0E0EA"/>
<path d="M40 51.5288C44.9545 51.5288 48.9709 51.2923 48.9709 51.0006C48.9709 50.7089 44.9545 50.4725 40 50.4725C35.0455 50.4725 31.0291 50.7089 31.0291 51.0006C31.0291 51.2923 35.0455 51.5288 40 51.5288Z" fill="#CFDFE9"/>
<path d="M40 51.4931C44.6242 51.4931 48.3729 51.2726 48.3729 51.0006C48.3729 50.7286 44.6242 50.5081 40 50.5081C35.3758 50.5081 31.6271 50.7286 31.6271 51.0006C31.6271 51.2726 35.3758 51.4931 40 51.4931Z" fill="#CEDFE9"/>
<path d="M40 51.4575C44.294 51.4575 47.7749 51.253 47.7749 51.0006C47.7749 50.7483 44.294 50.5437 40 50.5437C35.706 50.5437 32.2251 50.7483 32.2251 51.0006C32.2251 51.253 35.706 51.4575 40 51.4575Z" fill="#CDDEE9"/>
<path d="M40 51.4231C43.9637 51.4231 47.1769 51.234 47.1769 51.0006C47.1769 50.7673 43.9637 50.5781 40 50.5781C36.0363 50.5781 32.8231 50.7673 32.8231 51.0006C32.8231 51.234 36.0363 51.4231 40 51.4231Z" fill="#CCDDE8"/>
<path d="M40 51.3875C43.6335 51.3875 46.579 51.2143 46.579 51.0006C46.579 50.7869 43.6335 50.6137 40 50.6137C36.3665 50.6137 33.4211 50.7869 33.4211 51.0006C33.4211 51.2143 36.3665 51.3875 40 51.3875Z" fill="#CBDDE8"/>
<path d="M40 51.3519C43.3032 51.3519 45.981 51.1946 45.981 51.0006C45.981 50.8066 43.3032 50.6493 40 50.6493C36.6968 50.6493 34.019 50.8066 34.019 51.0006C34.019 51.1946 36.6968 51.3519 40 51.3519Z" fill="#CADCE7"/>
<path d="M40 51.3175C42.973 51.3175 45.383 51.1756 45.383 51.0006C45.383 50.8256 42.973 50.6837 40 50.6837C37.0271 50.6837 34.617 50.8256 34.617 51.0006C34.617 51.1756 37.0271 51.3175 40 51.3175Z" fill="#C9DBE7"/>
<path d="M40 51.2819C42.6427 51.2819 44.785 51.156 44.785 51.0006C44.785 50.8453 42.6427 50.7193 40 50.7193C37.3573 50.7193 35.215 50.8453 35.215 51.0006C35.215 51.156 37.3573 51.2819 40 51.2819Z" fill="#C8DBE6"/>
<path d="M40 51.2463C42.3124 51.2463 44.187 51.1363 44.187 51.0006C44.187 50.8649 42.3124 50.755 40 50.755C37.6876 50.755 35.813 50.8649 35.813 51.0006C35.813 51.1363 37.6876 51.2463 40 51.2463Z" fill="#C7DAE6"/>
<path d="M40 51.2119C41.9822 51.2119 43.5891 51.1173 43.5891 51.0006C43.5891 50.8839 41.9822 50.7894 40 50.7894C38.0178 50.7894 36.4109 50.8839 36.4109 51.0006C36.4109 51.1173 38.0178 51.2119 40 51.2119Z" fill="#C6D9E5"/>
<path d="M40 51.1763C41.6513 51.1763 42.9899 51.0976 42.9899 51.0006C42.9899 50.9036 41.6513 50.825 40 50.825C38.3487 50.825 37.0101 50.9036 37.0101 51.0006C37.0101 51.0976 38.3487 51.1763 40 51.1763Z" fill="#C5D9E5"/>
<path d="M40 51.1419C41.321 51.1419 42.3919 51.0786 42.3919 51.0006C42.3919 50.9226 41.321 50.8594 40 50.8594C38.679 50.8594 37.6081 50.9226 37.6081 51.0006C37.6081 51.0786 38.679 51.1419 40 51.1419Z" fill="#C4D8E4"/>
<path d="M40 51.1062C40.9908 51.1062 41.7939 51.059 41.7939 51.0006C41.7939 50.9423 40.9908 50.895 40 50.895C39.0092 50.895 38.2061 50.9423 38.2061 51.0006C38.2061 51.059 39.0092 51.1062 40 51.1062Z" fill="#C3D7E4"/>
<path d="M40 51.0706C40.6605 51.0706 41.196 51.0393 41.196 51.0006C41.196 50.9619 40.6605 50.9306 40 50.9306C39.3395 50.9306 38.804 50.9619 38.804 51.0006C38.804 51.0393 39.3395 51.0706 40 51.0706Z" fill="#C2D7E3"/>
<path d="M40 51.0362C40.3303 51.0362 40.598 51.0203 40.598 51.0006C40.598 50.9809 40.3303 50.965 40 50.965C39.6697 50.965 39.402 50.9809 39.402 51.0006C39.402 51.0203 39.6697 51.0362 40 51.0362Z" fill="#C1D6E3"/>
</g>
</g>
</g>
<defs>
<clipPath id="clip0_84_13360">
<rect width="80" height="54" fill="white"/>
</clipPath>
<clipPath id="clip1_84_13360">
<rect width="80" height="6" fill="white" transform="translate(0 48)"/>
</clipPath>
</defs>
</svg>
